const cueSet2 = [
  {
          "duration": 0.1304344000000004,
          "durationTicks": 6144,
          "midi": 45,
          "name": "A2",
          "ticks": 251176,
          "time": 5.332355282291667,
          "velocity": 0.6299212598425197
        },
        {
          "duration": 0.1304344000000004,
          "durationTicks": 6144,
          "midi": 52,
          "name": "E3",
          "ticks": 266536,
          "time": 5.658441282291667,
          "velocity": 0.6299212598425197
        },
        {
          "duration": 0.06521719999999931,
          "durationTicks": 3072,
          "midi": 52,
          "name": "E3",
          "ticks": 281896,
          "time": 5.984527282291667,
          "velocity": 0.6299212598425197
        },
        {
          "duration": 0.06521719999999931,
          "durationTicks": 3072,
          "midi": 52,
          "name": "E3",
          "ticks": 289576,
          "time": 6.147570282291667,
          "velocity": 0.6299212598425197
        },
        {
          "duration": 0.16304300000000005,
          "durationTicks": 7680,
          "midi": 50,
          "name": "D3",
          "ticks": 297256,
          "time": 6.310613282291667,
          "velocity": 0.7874015748031497
        },
        {
          "duration": 0.1304344000000004,
          "durationTicks": 6144,
          "midi": 45,
          "name": "A2",
          "ticks": 312616,
          "time": 6.6366992822916675,
          "velocity": 0.6299212598425197
        },
        {
          "duration": 0.1304344000000004,
          "durationTicks": 6144,
          "midi": 52,
          "name": "E3",
          "ticks": 327976,
          "time": 6.962785282291668,
          "velocity": 0.6299212598425197
        },
        {
          "duration": 0.06521719999999931,
          "durationTicks": 3072,
          "midi": 52,
          "name": "E3",
          "ticks": 343336,
          "time": 7.288871282291668,
          "velocity": 0.6299212598425197
        },
        {
          "duration": 0.06521719999999931,
          "durationTicks": 3072,
          "midi": 52,
          "name": "E3",
          "ticks": 351016,
          "time": 7.451914282291668,
          "velocity": 0.6299212598425197
        },
        {
          "duration": 0.16304300000000005,
          "durationTicks": 7680,
          "midi": 53,
          "name": "F3",
          "ticks": 358696,
          "time": 7.614957282291667,
          "velocity": 0.7874015748031497
        },
        {
          "duration": 0.13043440000000128,
          "durationTicks": 6144,
          "midi": 45,
          "name": "A2",
          "ticks": 374056,
          "time": 7.941043282291667,
          "velocity": 0.6299212598425197
        },
        {
          "duration": 0.1304344000000004,
          "durationTicks": 6144,
          "midi": 52,
          "name": "E3",
          "ticks": 389416,
          "time": 8.267129282291668,
          "velocity": 0.6299212598425197
        },
        {
          "duration": 0.06521719999999931,
          "durationTicks": 3072,
          "midi": 52,
          "name": "E3",
          "ticks": 404776,
          "time": 8.593215282291668,
          "velocity": 0.6299212598425197
        },
        {
          "duration": 0.06521719999999931,
          "durationTicks": 3072,
          "midi": 52,
          "name": "E3",
          "ticks": 412456,
          "time": 8.756258282291668,
          "velocity": 0.6299212598425197
        },
        {
          "duration": 0.16304300000000005,
          "durationTicks": 7680,
          "midi": 50,
          "name": "D3",
          "ticks": 420136,
          "time": 8.919301282291668,
          "velocity": 0.7874015748031497
        },
        {
          "duration": 0.1304344000000004,
          "durationTicks": 6144,
          "midi": 45,
          "name": "A2",
          "ticks": 435496,
          "time": 9.245387282291668,
          "velocity": 0.6299212598425197
        },
        {
          "duration": 0.1304344000000004,
          "durationTicks": 6144,
          "midi": 52,
          "name": "E3",
          "ticks": 450856,
          "time": 9.571473282291668,
          "velocity": 0.6299212598425197
        },
        {
          "duration": 0.06521719999999931,
          "durationTicks": 3072,
          "midi": 52,
          "name": "E3",
          "ticks": 466216,
          "time": 9.897559282291668,
          "velocity": 0.6299212598425197
        },
        {
          "duration": 0.06521719999999931,
          "durationTicks": 3072,
          "midi": 52,
          "name": "E3",
          "ticks": 473896,
          "time": 10.060602282291669,
          "velocity": 0.6299212598425197
        },
        {
          "duration": 0.16304300000000005,
          "durationTicks": 7680,
          "midi": 53,
          "name": "F3",
          "ticks": 481576,
          "time": 10.223645282291667,
          "velocity": 0.7874015748031497
        },
        {
          "duration": 0.1304344000000004,
          "durationTicks": 6144,
          "midi": 45,
          "name": "A2",
          "ticks": 496936,
          "time": 10.549731282291667,
          "velocity": 0.6299212598425197
        },
        {
          "duration": 0.1304344000000004,
          "durationTicks": 6144,
          "midi": 52,
          "name": "E3",
          "ticks": 512296,
          "time": 10.875817282291667,
          "velocity": 0.6299212598425197
        },
        {
          "duration": 0.06521720000000109,
          "durationTicks": 3072,
          "midi": 52,
          "name": "E3",
          "ticks": 527656,
          "time": 11.201903282291667,
          "velocity": 0.6299212598425197
        },
        {
          "duration": 0.06521720000000109,
          "durationTicks": 3072,
          "midi": 52,
          "name": "E3",
          "ticks": 535336,
          "time": 11.364946282291667,
          "velocity": 0.6299212598425197
        },
        {
          "duration": 0.16304300000000005,
          "durationTicks": 7680,
          "midi": 50,
          "name": "D3",
          "ticks": 543016,
          "time": 11.527989282291667,
          "velocity": 0.7874015748031497
        },
        {
          "duration": 0.1304344000000004,
          "durationTicks": 6144,
          "midi": 45,
          "name": "A2",
          "ticks": 558376,
          "time": 11.854075282291667,
          "velocity": 0.6299212598425197
        },
        {
          "duration": 0.1304344000000004,
          "durationTicks": 6144,
          "midi": 52,
          "name": "E3",
          "ticks": 573736,
          "time": 12.180161282291667,
          "velocity": 0.6299212598425197
        },
        {
          "duration": 0.06521720000000109,
          "durationTicks": 3072,
          "midi": 52,
          "name": "E3",
          "ticks": 589096,
          "time": 12.506247282291667,
          "velocity": 0.6299212598425197
        },
        {
          "duration": 0.06521720000000109,
          "durationTicks": 3072,
          "midi": 52,
          "name": "E3",
          "ticks": 596776,
          "time": 12.669290282291668,
          "velocity": 0.6299212598425197
        },
        {
          "duration": 0.16304300000000005,
          "durationTicks": 7680,
          "midi": 53,
          "name": "F3",
          "ticks": 604456,
          "time": 12.832333282291668,
          "velocity": 0.7874015748031497
        },
        {
          "duration": 0.1304344000000004,
          "durationTicks": 6144,
          "midi": 45,
          "name": "A2",
          "ticks": 619816,
          "time": 13.158419282291668,
          "velocity": 0.6299212598425197
        },
        {
          "duration": 0.1304344000000004,
          "durationTicks": 6144,
          "midi": 52,
          "name": "E3",
          "ticks": 635176,
          "time": 13.484505282291668,
          "velocity": 0.6299212598425197
        },
        {
          "duration": 0.06521720000000109,
          "durationTicks": 3072,
          "midi": 52,
          "name": "E3",
          "ticks": 650536,
          "time": 13.810591282291668,
          "velocity": 0.6299212598425197
        },
        {
          "duration": 0.06521720000000109,
          "durationTicks": 3072,
          "midi": 52,
          "name": "E3",
          "ticks": 658216,
          "time": 13.973634282291668,
          "velocity": 0.6299212598425197
        },
        {
          "duration": 0.16304300000000005,
          "durationTicks": 7680,
          "midi": 50,
          "name": "D3",
          "ticks": 665896,
          "time": 14.136677282291668,
          "velocity": 0.7874015748031497
        },
        {
          "duration": 0.1304344000000004,
          "durationTicks": 6144,
          "midi": 45,
          "name": "A2",
          "ticks": 681256,
          "time": 14.462763282291668,
          "velocity": 0.6299212598425197
        },
        {
          "duration": 0.1304344000000004,
          "durationTicks": 6144,
          "midi": 52,
          "name": "E3",
          "ticks": 696616,
          "time": 14.788849282291668,
          "velocity": 0.6299212598425197
        },
        {
          "duration": 0.06521720000000109,
          "durationTicks": 3072,
          "midi": 52,
          "name": "E3",
          "ticks": 711976,
          "time": 15.114935282291668,
          "velocity": 0.6299212598425197
        },
        {
          "duration": 0.06521720000000109,
          "durationTicks": 3072,
          "midi": 52,
          "name": "E3",
          "ticks": 719656,
          "time": 15.277978282291668,
          "velocity": 0.6299212598425197
        },
        {
          "duration": 0.16304300000000005,
          "durationTicks": 7680,
          "midi": 53,
          "name": "F3",
          "ticks": 727336,
          "time": 15.441021282291668,
          "velocity": 0.7874015748031497
        },
        {
          "duration": 0.13043439999999862,
          "durationTicks": 6144,
          "midi": 45,
          "name": "A2",
          "ticks": 742696,
          "time": 15.767107282291668,
          "velocity": 0.6299212598425197
        },
        {
          "duration": 0.13043439999999862,
          "durationTicks": 6144,
          "midi": 52,
          "name": "E3",
          "ticks": 758056,
          "time": 16.09319328229167,
          "velocity": 0.6299212598425197
        },
        {
          "duration": 0.06521719999999931,
          "durationTicks": 3072,
          "midi": 52,
          "name": "E3",
          "ticks": 773416,
          "time": 16.41927928229167,
          "velocity": 0.6299212598425197
        },
        {
          "duration": 0.06521720000000286,
          "durationTicks": 3072,
          "midi": 52,
          "name": "E3",
          "ticks": 781096,
          "time": 16.582322282291667,
          "velocity": 0.6299212598425197
        },
        {
          "duration": 0.16304299999999827,
          "durationTicks": 7680,
          "midi": 50,
          "name": "D3",
          "ticks": 788776,
          "time": 16.74536528229167,
          "velocity": 0.7874015748031497
        },
        {
          "duration": 0.13043439999999862,
          "durationTicks": 6144,
          "midi": 45,
          "name": "A2",
          "ticks": 804136,
          "time": 17.07145128229167,
          "velocity": 0.6299212598425197
        },
        {
          "duration": 0.13043439999999862,
          "durationTicks": 6144,
          "midi": 52,
          "name": "E3",
          "ticks": 819496,
          "time": 17.39753728229167,
          "velocity": 0.6299212598425197
        },
        {
          "duration": 0.06521719999999931,
          "durationTicks": 3072,
          "midi": 52,
          "name": "E3",
          "ticks": 834856,
          "time": 17.72362328229167,
          "velocity": 0.6299212598425197
        },
        {
          "duration": 0.06521720000000286,
          "durationTicks": 3072,
          "midi": 52,
          "name": "E3",
          "ticks": 842536,
          "time": 17.886666282291667,
          "velocity": 0.6299212598425197
        },
        {
          "duration": 0.16304299999999827,
          "durationTicks": 7680,
          "midi": 53,
          "name": "F3",
          "ticks": 850216,
          "time": 18.04970928229167,
          "velocity": 0.7874015748031497
        },
        {
          "duration": 0.13043439999999862,
          "durationTicks": 6144,
          "midi": 45,
          "name": "A2",
          "ticks": 865576,
          "time": 18.37579528229167,
          "velocity": 0.6299212598425197
        },
        {
          "duration": 0.13043439999999862,
          "durationTicks": 6144,
          "midi": 52,
          "name": "E3",
          "ticks": 880936,
          "time": 18.70188128229167,
          "velocity": 0.6299212598425197
        },
        {
          "duration": 0.06521719999999931,
          "durationTicks": 3072,
          "midi": 52,
          "name": "E3",
          "ticks": 896296,
          "time": 19.02796728229167,
          "velocity": 0.6299212598425197
        },
        {
          "duration": 0.06521720000000286,
          "durationTicks": 3072,
          "midi": 52,
          "name": "E3",
          "ticks": 903976,
          "time": 19.191010282291668,
          "velocity": 0.6299212598425197
        },
        {
          "duration": 0.16304299999999827,
          "durationTicks": 7680,
          "midi": 50,
          "name": "D3",
          "ticks": 911656,
          "time": 19.35405328229167,
          "velocity": 0.7874015748031497
        },
        {
          "duration": 0.13043439999999862,
          "durationTicks": 6144,
          "midi": 45,
          "name": "A2",
          "ticks": 927016,
          "time": 19.68013928229167,
          "velocity": 0.6299212598425197
        },
        {
          "duration": 0.13043439999999862,
          "durationTicks": 6144,
          "midi": 52,
          "name": "E3",
          "ticks": 942376,
          "time": 20.00622528229167,
          "velocity": 0.6299212598425197
        },
        {
          "duration": 0.06521719999999931,
          "durationTicks": 3072,
          "midi": 52,
          "name": "E3",
          "ticks": 957736,
          "time": 20.33231128229167,
          "velocity": 0.6299212598425197
        },
        {
          "duration": 0.06521720000000286,
          "durationTicks": 3072,
          "midi": 52,
          "name": "E3",
          "ticks": 965416,
          "time": 20.495354282291668,
          "velocity": 0.6299212598425197
        },
        {
          "duration": 0.16304299999999827,
          "durationTicks": 7680,
          "midi": 53,
          "name": "F3",
          "ticks": 973096,
          "time": 20.65839728229167,
          "velocity": 0.7874015748031497
        },
        {
          "duration": 0.13043440000000217,
          "durationTicks": 6144,
          "midi": 45,
          "name": "A2",
          "ticks": 988456,
          "time": 20.98448328229167,
          "velocity": 0.6299212598425197
        },
        {
          "duration": 0.13043440000000217,
          "durationTicks": 6144,
          "midi": 52,
          "name": "E3",
          "ticks": 1003816,
          "time": 21.31056928229167,
          "velocity": 0.6299212598425197
        },
        {
          "duration": 0.06521719999999931,
          "durationTicks": 3072,
          "midi": 52,
          "name": "E3",
          "ticks": 1019176,
          "time": 21.63665528229167,
          "velocity": 0.6299212598425197
        },
        {
          "duration": 0.06521720000000286,
          "durationTicks": 3072,
          "midi": 52,
          "name": "E3",
          "ticks": 1026856,
          "time": 21.79969828229167,
          "velocity": 0.6299212598425197
        },
        {
          "duration": 0.16304299999999827,
          "durationTicks": 7680,
          "midi": 50,
          "name": "D3",
          "ticks": 1034536,
          "time": 21.96274128229167,
          "velocity": 0.7874015748031497
        },
        {
          "duration": 0.13043440000000217,
          "durationTicks": 6144,
          "midi": 45,
          "name": "A2",
          "ticks": 1049896,
          "time": 22.28882728229167,
          "velocity": 0.6299212598425197
        },
        {
          "duration": 0.13043440000000217,
          "durationTicks": 6144,
          "midi": 52,
          "name": "E3",
          "ticks": 1065256,
          "time": 22.61491328229167,
          "velocity": 0.6299212598425197
        },
        {
          "duration": 0.06521719999999931,
          "durationTicks": 3072,
          "midi": 52,
          "name": "E3",
          "ticks": 1080616,
          "time": 22.94099928229167,
          "velocity": 0.6299212598425197
        },
        {
          "duration": 0.06521720000000286,
          "durationTicks": 3072,
          "midi": 52,
          "name": "E3",
          "ticks": 1088296,
          "time": 23.10404228229167,
          "velocity": 0.6299212598425197
        },
        {
          "duration": 0.16304299999999827,
          "durationTicks": 7680,
          "midi": 53,
          "name": "F3",
          "ticks": 1095976,
          "time": 23.26708528229167,
          "velocity": 0.7874015748031497
        },
        {
          "duration": 0.13043440000000217,
          "durationTicks": 6144,
          "midi": 45,
          "name": "A2",
          "ticks": 1111336,
          "time": 23.59317128229167,
          "velocity": 0.6299212598425197
        },
        {
          "duration": 0.13043440000000217,
          "durationTicks": 6144,
          "midi": 52,
          "name": "E3",
          "ticks": 1126696,
          "time": 23.91925728229167,
          "velocity": 0.6299212598425197
        },
        {
          "duration": 0.06521719999999931,
          "durationTicks": 3072,
          "midi": 52,
          "name": "E3",
          "ticks": 1142056,
          "time": 24.24534328229167,
          "velocity": 0.6299212598425197
        },
        {
          "duration": 0.06521720000000286,
          "durationTicks": 3072,
          "midi": 52,
          "name": "E3",
          "ticks": 1149736,
          "time": 24.40838628229167,
          "velocity": 0.6299212598425197
        },
        {
          "duration": 0.16304299999999827,
          "durationTicks": 7680,
          "midi": 50,
          "name": "D3",
          "ticks": 1157416,
          "time": 24.57142928229167,
          "velocity": 0.7874015748031497
        },
        {
          "duration": 0.13043439999999862,
          "durationTicks": 6144,
          "midi": 45,
          "name": "A2",
          "ticks": 1172776,
          "time": 24.89751528229167,
          "velocity": 0.6299212598425197
        },
        {
          "duration": 0.13043439999999862,
          "durationTicks": 6144,
          "midi": 52,
          "name": "E3",
          "ticks": 1188136,
          "time": 25.22360128229167,
          "velocity": 0.6299212598425197
        },
        {
          "duration": 0.06521719999999931,
          "durationTicks": 3072,
          "midi": 52,
          "name": "E3",
          "ticks": 1203496,
          "time": 25.54968728229167,
          "velocity": 0.6299212598425197
        },
        {
          "duration": 0.06521719999999931,
          "durationTicks": 3072,
          "midi": 52,
          "name": "E3",
          "ticks": 1211176,
          "time": 25.71273028229167,
          "velocity": 0.6299212598425197
        },
        {
          "duration": 0.16304300000000183,
          "durationTicks": 7680,
          "midi": 53,
          "name": "F3",
          "ticks": 1218856,
          "time": 25.875773282291668,
          "velocity": 0.7874015748031497
        },
        {
          "duration": 0.13043440000000217,
          "durationTicks": 6144,
          "midi": 45,
          "name": "A2",
          "ticks": 1234216,
          "time": 26.201859282291668,
          "velocity": 0.6299212598425197
        },
        {
          "duration": 0.13043440000000217,
          "durationTicks": 6144,
          "midi": 52,
          "name": "E3",
          "ticks": 1249576,
          "time": 26.527945282291668,
          "velocity": 0.6299212598425197
        },
        {
          "duration": 0.06521720000000286,
          "durationTicks": 3072,
          "midi": 52,
          "name": "E3",
          "ticks": 1264936,
          "time": 26.85403128229167,
          "velocity": 0.6299212598425197
        },
        {
          "duration": 0.06521719999999931,
          "durationTicks": 3072,
          "midi": 52,
          "name": "E3",
          "ticks": 1272616,
          "time": 27.01707428229167,
          "velocity": 0.6299212598425197
        },
        {
          "duration": 0.16304300000000183,
          "durationTicks": 7680,
          "midi": 50,
          "name": "D3",
          "ticks": 1280296,
          "time": 27.18011728229167,
          "velocity": 0.7874015748031497
        },
        {
          "duration": 0.13043440000000217,
          "durationTicks": 6144,
          "midi": 45,
          "name": "A2",
          "ticks": 1295656,
          "time": 27.50620328229167,
          "velocity": 0.6299212598425197
        },
        {
          "duration": 0.13043440000000217,
          "durationTicks": 6144,
          "midi": 52,
          "name": "E3",
          "ticks": 1311016,
          "time": 27.83228928229167,
          "velocity": 0.6299212598425197
        },
        {
          "duration": 0.06521720000000286,
          "durationTicks": 3072,
          "midi": 52,
          "name": "E3",
          "ticks": 1326376,
          "time": 28.15837528229167,
          "velocity": 0.6299212598425197
        },
        {
          "duration": 0.06521719999999931,
          "durationTicks": 3072,
          "midi": 52,
          "name": "E3",
          "ticks": 1334056,
          "time": 28.32141828229167,
          "velocity": 0.6299212598425197
        },
        {
          "duration": 0.16304300000000183,
          "durationTicks": 7680,
          "midi": 53,
          "name": "F3",
          "ticks": 1341736,
          "time": 28.48446128229167,
          "velocity": 0.7874015748031497
        },
        {
          "duration": 0.13043440000000217,
          "durationTicks": 6144,
          "midi": 45,
          "name": "A2",
          "ticks": 1357096,
          "time": 28.81054728229167,
          "velocity": 0.6299212598425197
        },
        {
          "duration": 0.13043440000000217,
          "durationTicks": 6144,
          "midi": 52,
          "name": "E3",
          "ticks": 1372456,
          "time": 29.13663328229167,
          "velocity": 0.6299212598425197
        },
        {
          "duration": 0.06521720000000286,
          "durationTicks": 3072,
          "midi": 52,
          "name": "E3",
          "ticks": 1387816,
          "time": 29.46271928229167,
          "velocity": 0.6299212598425197
        },
        {
          "duration": 0.06521719999999931,
          "durationTicks": 3072,
          "midi": 52,
          "name": "E3",
          "ticks": 1395496,
          "time": 29.62576228229167,
          "velocity": 0.6299212598425197
        },
        {
          "duration": 0.16304300000000183,
          "durationTicks": 7680,
          "midi": 50,
          "name": "D3",
          "ticks": 1403176,
          "time": 29.78880528229167,
          "velocity": 0.7874015748031497
        },
        {
          "duration": 0.13043440000000217,
          "durationTicks": 6144,
          "midi": 45,
          "name": "A2",
          "ticks": 1418536,
          "time": 30.11489128229167,
          "velocity": 0.6299212598425197
        },
        {
          "duration": 0.13043440000000217,
          "durationTicks": 6144,
          "midi": 52,
          "name": "E3",
          "ticks": 1433896,
          "time": 30.44097728229167,
          "velocity": 0.6299212598425197
        },
        {
          "duration": 0.06521720000000286,
          "durationTicks": 3072,
          "midi": 52,
          "name": "E3",
          "ticks": 1449256,
          "time": 30.76706328229167,
          "velocity": 0.6299212598425197
        },
        {
          "duration": 0.06521719999999931,
          "durationTicks": 3072,
          "midi": 52,
          "name": "E3",
          "ticks": 1456936,
          "time": 30.93010628229167,
          "velocity": 0.6299212598425197
        },
        {
          "duration": 0.16304300000000183,
          "durationTicks": 7680,
          "midi": 53,
          "name": "F3",
          "ticks": 1464616,
          "time": 31.09314928229167,
          "velocity": 0.7874015748031497
        },
        {
          "duration": 0.13043440000000217,
          "durationTicks": 6144,
          "midi": 45,
          "name": "A2",
          "ticks": 1479976,
          "time": 31.41923528229167,
          "velocity": 0.6299212598425197
        },
        {
          "duration": 0.13043440000000217,
          "durationTicks": 6144,
          "midi": 52,
          "name": "E3",
          "ticks": 1495336,
          "time": 31.74532128229167,
          "velocity": 0.6299212598425197
        },
        {
          "duration": 0.06521719999999931,
          "durationTicks": 3072,
          "midi": 52,
          "name": "E3",
          "ticks": 1510696,
          "time": 32.07140728229167,
          "velocity": 0.6299212598425197
        },
        {
          "duration": 0.06521720000000641,
          "durationTicks": 3072,
          "midi": 52,
          "name": "E3",
          "ticks": 1518376,
          "time": 32.23445028229167,
          "velocity": 0.6299212598425197
        },
        {
          "duration": 0.16304300000000183,
          "durationTicks": 7680,
          "midi": 50,
          "name": "D3",
          "ticks": 1526056,
          "time": 32.39749328229167,
          "velocity": 0.7874015748031497
        },
        {
          "duration": 0.13043439999999862,
          "durationTicks": 6144,
          "midi": 45,
          "name": "A2",
          "ticks": 1541416,
          "time": 32.723579282291674,
          "velocity": 0.6299212598425197
        },
        {
          "duration": 0.13043440000000572,
          "durationTicks": 6144,
          "midi": 52,
          "name": "E3",
          "ticks": 1556776,
          "time": 33.04966528229167,
          "velocity": 0.6299212598425197
        },
        {
          "duration": 0.06521719999999931,
          "durationTicks": 3072,
          "midi": 52,
          "name": "E3",
          "ticks": 1572136,
          "time": 33.375751282291674,
          "velocity": 0.6299212598425197
        },
        {
          "duration": 0.06521720000000641,
          "durationTicks": 3072,
          "midi": 52,
          "name": "E3",
          "ticks": 1579816,
          "time": 33.53879428229167,
          "velocity": 0.6299212598425197
        },
        {
          "duration": 0.16304300000000183,
          "durationTicks": 7680,
          "midi": 53,
          "name": "F3",
          "ticks": 1587496,
          "time": 33.70183728229167,
          "velocity": 0.7874015748031497
        },
        {
          "duration": 0.13043439999999862,
          "durationTicks": 6144,
          "midi": 45,
          "name": "A2",
          "ticks": 1602856,
          "time": 34.027923282291674,
          "velocity": 0.6299212598425197
        },
        {
          "duration": 0.13043440000000572,
          "durationTicks": 6144,
          "midi": 52,
          "name": "E3",
          "ticks": 1618216,
          "time": 34.35400928229167,
          "velocity": 0.6299212598425197
        },
        {
          "duration": 0.06521719999999931,
          "durationTicks": 3072,
          "midi": 52,
          "name": "E3",
          "ticks": 1633576,
          "time": 34.680095282291674,
          "velocity": 0.6299212598425197
        },
        {
          "duration": 0.06521720000000641,
          "durationTicks": 3072,
          "midi": 52,
          "name": "E3",
          "ticks": 1641256,
          "time": 34.84313828229167,
          "velocity": 0.6299212598425197
        },
        {
          "duration": 0.16304300000000183,
          "durationTicks": 7680,
          "midi": 50,
          "name": "D3",
          "ticks": 1648936,
          "time": 35.00618128229167,
          "velocity": 0.7874015748031497
        },
        {
          "duration": 0.13043439999999862,
          "durationTicks": 6144,
          "midi": 45,
          "name": "A2",
          "ticks": 1664296,
          "time": 35.332267282291674,
          "velocity": 0.6299212598425197
        },
        {
          "duration": 0.13043439999999862,
          "durationTicks": 6144,
          "midi": 52,
          "name": "E3",
          "ticks": 1679656,
          "time": 35.65835328229167,
          "velocity": 0.6299212598425197
        },
        {
          "duration": 0.06521719999999931,
          "durationTicks": 3072,
          "midi": 52,
          "name": "E3",
          "ticks": 1695016,
          "time": 35.984439282291675,
          "velocity": 0.6299212598425197
        },
        {
          "duration": 0.06521719999999931,
          "durationTicks": 3072,
          "midi": 52,
          "name": "E3",
          "ticks": 1702696,
          "time": 36.14748228229167,
          "velocity": 0.6299212598425197
        },
        {
          "duration": 0.16304300000000183,
          "durationTicks": 7680,
          "midi": 53,
          "name": "F3",
          "ticks": 1710376,
          "time": 36.31052528229167,
          "velocity": 0.7874015748031497
        },
        {
          "duration": 0.13043440000000572,
          "durationTicks": 6144,
          "midi": 45,
          "name": "A2",
          "ticks": 1725736,
          "time": 36.63661128229167,
          "velocity": 0.6299212598425197
        },
        {
          "duration": 0.13043439999999862,
          "durationTicks": 6144,
          "midi": 52,
          "name": "E3",
          "ticks": 1741096,
          "time": 36.96269728229167,
          "velocity": 0.6299212598425197
        },
        {
          "duration": 0.06521720000000641,
          "durationTicks": 3072,
          "midi": 52,
          "name": "E3",
          "ticks": 1756456,
          "time": 37.28878328229167,
          "velocity": 0.6299212598425197
        },
        {
          "duration": 0.06521719999999931,
          "durationTicks": 3072,
          "midi": 52,
          "name": "E3",
          "ticks": 1764136,
          "time": 37.45182628229167,
          "velocity": 0.6299212598425197
        },
        {
          "duration": 0.16304300000000183,
          "durationTicks": 7680,
          "midi": 50,
          "name": "D3",
          "ticks": 1771816,
          "time": 37.61486928229167,
          "velocity": 0.7874015748031497
        },
        {
          "duration": 0.13043440000000572,
          "durationTicks": 6144,
          "midi": 45,
          "name": "A2",
          "ticks": 1787176,
          "time": 37.94095528229167,
          "velocity": 0.6299212598425197
        },
        {
          "duration": 0.13043439999999862,
          "durationTicks": 6144,
          "midi": 52,
          "name": "E3",
          "ticks": 1802536,
          "time": 38.26704128229167,
          "velocity": 0.6299212598425197
        },
        {
          "duration": 0.06521720000000641,
          "durationTicks": 3072,
          "midi": 52,
          "name": "E3",
          "ticks": 1817896,
          "time": 38.59312728229167,
          "velocity": 0.6299212598425197
        },
        {
          "duration": 0.06521719999999931,
          "durationTicks": 3072,
          "midi": 52,
          "name": "E3",
          "ticks": 1825576,
          "time": 38.75617028229167,
          "velocity": 0.6299212598425197
        },
        {
          "duration": 0.16304300000000183,
          "durationTicks": 7680,
          "midi": 53,
          "name": "F3",
          "ticks": 1833256,
          "time": 38.91921328229167,
          "velocity": 0.7874015748031497
        },
        {
          "duration": 0.13043440000000572,
          "durationTicks": 6144,
          "midi": 45,
          "name": "A2",
          "ticks": 1848616,
          "time": 39.24529928229167,
          "velocity": 0.6299212598425197
        },
        {
          "duration": 0.13043439999999862,
          "durationTicks": 6144,
          "midi": 52,
          "name": "E3",
          "ticks": 1863976,
          "time": 39.57138528229167,
          "velocity": 0.6299212598425197
        },
        {
          "duration": 0.06521720000000641,
          "durationTicks": 3072,
          "midi": 52,
          "name": "E3",
          "ticks": 1879336,
          "time": 39.89747128229167,
          "velocity": 0.6299212598425197
        },
        {
          "duration": 0.06521719999999931,
          "durationTicks": 3072,
          "midi": 52,
          "name": "E3",
          "ticks": 1887016,
          "time": 40.06051428229167,
          "velocity": 0.6299212598425197
        },
        {
          "duration": 0.16304300000000183,
          "durationTicks": 7680,
          "midi": 50,
          "name": "D3",
          "ticks": 1894696,
          "time": 40.22355728229167,
          "velocity": 0.7874015748031497
        },
        {
          "duration": 0.13043440000000572,
          "durationTicks": 6144,
          "midi": 45,
          "name": "A2",
          "ticks": 1910056,
          "time": 40.54964328229167,
          "velocity": 0.6299212598425197
        },
        {
          "duration": 0.13043439999999862,
          "durationTicks": 6144,
          "midi": 52,
          "name": "E3",
          "ticks": 1925416,
          "time": 40.87572928229167,
          "velocity": 0.6299212598425197
        },
        {
          "duration": 0.06521720000000641,
          "durationTicks": 3072,
          "midi": 52,
          "name": "E3",
          "ticks": 1940776,
          "time": 41.20181528229167,
          "velocity": 0.6299212598425197
        },
        {
          "duration": 0.06521719999999931,
          "durationTicks": 3072,
          "midi": 52,
          "name": "E3",
          "ticks": 1948456,
          "time": 41.36485828229167,
          "velocity": 0.6299212598425197
        },
        {
          "duration": 0.16304300000000183,
          "durationTicks": 7680,
          "midi": 53,
          "name": "F3",
          "ticks": 1956136,
          "time": 41.52790128229167,
          "velocity": 0.7874015748031497
        },
        {
          "duration": 0.1304343999999915,
          "durationTicks": 6144,
          "midi": 45,
          "name": "A2",
          "ticks": 1971496,
          "time": 41.853987282291676,
          "velocity": 0.6299212598425197
        },
        {
          "duration": 0.1304343999999915,
          "durationTicks": 6144,
          "midi": 52,
          "name": "E3",
          "ticks": 1986856,
          "time": 42.18007328229168,
          "velocity": 0.6299212598425197
        },
        {
          "duration": 0.06521719999999931,
          "durationTicks": 3072,
          "midi": 52,
          "name": "E3",
          "ticks": 2002216,
          "time": 42.50615928229168,
          "velocity": 0.6299212598425197
        },
        {
          "duration": 0.0652171999999922,
          "durationTicks": 3072,
          "midi": 52,
          "name": "E3",
          "ticks": 2009896,
          "time": 42.66920228229168,
          "velocity": 0.6299212598425197
        },
        {
          "duration": 0.16304300000000183,
          "durationTicks": 7680,
          "midi": 50,
          "name": "D3",
          "ticks": 2017576,
          "time": 42.83224528229167,
          "velocity": 0.7874015748031497
        },
        {
          "duration": 0.1304343999999915,
          "durationTicks": 6144,
          "midi": 45,
          "name": "A2",
          "ticks": 2032936,
          "time": 43.15833128229168,
          "velocity": 0.6299212598425197
        },
        {
          "duration": 0.13043439999999862,
          "durationTicks": 6144,
          "midi": 52,
          "name": "E3",
          "ticks": 2048296,
          "time": 43.48441728229167,
          "velocity": 0.6299212598425197
        },
        {
          "duration": 0.06521719999999931,
          "durationTicks": 3072,
          "midi": 52,
          "name": "E3",
          "ticks": 2063656,
          "time": 43.81050328229168,
          "velocity": 0.6299212598425197
        },
        {
          "duration": 0.0652171999999922,
          "durationTicks": 3072,
          "midi": 52,
          "name": "E3",
          "ticks": 2071336,
          "time": 43.97354628229168,
          "velocity": 0.6299212598425197
        },
        {
          "duration": 0.16304300000000183,
          "durationTicks": 7680,
          "midi": 53,
          "name": "F3",
          "ticks": 2079016,
          "time": 44.13658928229167,
          "velocity": 0.7874015748031497
        },
        {
          "duration": 0.1304343999999915,
          "durationTicks": 6144,
          "midi": 45,
          "name": "A2",
          "ticks": 2094376,
          "time": 44.46267528229168,
          "velocity": 0.6299212598425197
        },
        {
          "duration": 0.13043439999999862,
          "durationTicks": 6144,
          "midi": 52,
          "name": "E3",
          "ticks": 2109736,
          "time": 44.788761282291674,
          "velocity": 0.6299212598425197
        },
        {
          "duration": 0.06521719999999931,
          "durationTicks": 3072,
          "midi": 52,
          "name": "E3",
          "ticks": 2125096,
          "time": 45.11484728229168,
          "velocity": 0.6299212598425197
        },
        {
          "duration": 0.0652171999999922,
          "durationTicks": 3072,
          "midi": 52,
          "name": "E3",
          "ticks": 2132776,
          "time": 45.27789028229168,
          "velocity": 0.6299212598425197
        },
        {
          "duration": 0.16304300000000183,
          "durationTicks": 7680,
          "midi": 50,
          "name": "D3",
          "ticks": 2140456,
          "time": 45.440933282291674,
          "velocity": 0.7874015748031497
        },
        {
          "duration": 0.1304343999999915,
          "durationTicks": 6144,
          "midi": 45,
          "name": "A2",
          "ticks": 2155816,
          "time": 45.76701928229168,
          "velocity": 0.6299212598425197
        },
        {
          "duration": 0.13043439999999862,
          "durationTicks": 6144,
          "midi": 52,
          "name": "E3",
          "ticks": 2171176,
          "time": 46.093105282291674,
          "velocity": 0.6299212598425197
        },
        {
          "duration": 0.0652171999999922,
          "durationTicks": 3072,
          "midi": 52,
          "name": "E3",
          "ticks": 2186536,
          "time": 46.41919128229168,
          "velocity": 0.6299212598425197
        },
        {
          "duration": 0.0652171999999922,
          "durationTicks": 3072,
          "midi": 52,
          "name": "E3",
          "ticks": 2194216,
          "time": 46.58223428229168,
          "velocity": 0.6299212598425197
        },
        {
          "duration": 0.16304300000000183,
          "durationTicks": 7680,
          "midi": 53,
          "name": "F3",
          "ticks": 2201896,
          "time": 46.745277282291674,
          "velocity": 0.7874015748031497
        },
        {
          "duration": 0.1304343999999915,
          "durationTicks": 6144,
          "midi": 45,
          "name": "A2",
          "ticks": 2217256,
          "time": 47.07136328229168,
          "velocity": 0.6299212598425197
        },
        {
          "duration": 0.13043439999999862,
          "durationTicks": 6144,
          "midi": 52,
          "name": "E3",
          "ticks": 2232616,
          "time": 47.397449282291674,
          "velocity": 0.6299212598425197
        },
        {
          "duration": 0.0652171999999922,
          "durationTicks": 3072,
          "midi": 52,
          "name": "E3",
          "ticks": 2247976,
          "time": 47.72353528229168,
          "velocity": 0.6299212598425197
        },
        {
          "duration": 0.0652171999999922,
          "durationTicks": 3072,
          "midi": 52,
          "name": "E3",
          "ticks": 2255656,
          "time": 47.88657828229168,
          "velocity": 0.6299212598425197
        },
        {
          "duration": 0.16304300000000183,
          "durationTicks": 7680,
          "midi": 50,
          "name": "D3",
          "ticks": 2263336,
          "time": 48.049621282291675,
          "velocity": 0.7874015748031497
        },
        {
          "duration": 0.1304343999999915,
          "durationTicks": 6144,
          "midi": 45,
          "name": "A2",
          "ticks": 2278696,
          "time": 48.37570728229168,
          "velocity": 0.6299212598425197
        },
        {
          "duration": 0.13043439999999862,
          "durationTicks": 6144,
          "midi": 52,
          "name": "E3",
          "ticks": 2294056,
          "time": 48.701793282291675,
          "velocity": 0.6299212598425197
        },
        {
          "duration": 0.0652171999999922,
          "durationTicks": 3072,
          "midi": 52,
          "name": "E3",
          "ticks": 2309416,
          "time": 49.02787928229168,
          "velocity": 0.6299212598425197
        },
        {
          "duration": 0.0652171999999922,
          "durationTicks": 3072,
          "midi": 52,
          "name": "E3",
          "ticks": 2317096,
          "time": 49.19092228229168,
          "velocity": 0.6299212598425197
        },
        {
          "duration": 0.16304300000000183,
          "durationTicks": 7680,
          "midi": 53,
          "name": "F3",
          "ticks": 2324776,
          "time": 49.353965282291675,
          "velocity": 0.7874015748031497
        },
        {
          "duration": 0.1304343999999915,
          "durationTicks": 6144,
          "midi": 45,
          "name": "A2",
          "ticks": 2340136,
          "time": 49.68005128229168,
          "velocity": 0.6299212598425197
        },
        {
          "duration": 0.1304343999999915,
          "durationTicks": 6144,
          "midi": 52,
          "name": "E3",
          "ticks": 2355496,
          "time": 50.006137282291675,
          "velocity": 0.6299212598425197
        },
        {
          "duration": 0.0652171999999922,
          "durationTicks": 3072,
          "midi": 52,
          "name": "E3",
          "ticks": 2370856,
          "time": 50.33222328229168,
          "velocity": 0.6299212598425197
        },
        {
          "duration": 0.0652171999999922,
          "durationTicks": 3072,
          "midi": 52,
          "name": "E3",
          "ticks": 2378536,
          "time": 50.49526628229168,
          "velocity": 0.6299212598425197
        },
        {
          "duration": 0.16304300000000183,
          "durationTicks": 7680,
          "midi": 50,
          "name": "D3",
          "ticks": 2386216,
          "time": 50.658309282291675,
          "velocity": 0.7874015748031497
        },
        {
          "duration": 0.1304343999999915,
          "durationTicks": 6144,
          "midi": 45,
          "name": "A2",
          "ticks": 2401576,
          "time": 50.98439528229168,
          "velocity": 0.6299212598425197
        },
        {
          "duration": 0.1304343999999915,
          "durationTicks": 6144,
          "midi": 52,
          "name": "E3",
          "ticks": 2416936,
          "time": 51.310481282291676,
          "velocity": 0.6299212598425197
        },
        {
          "duration": 0.0652171999999922,
          "durationTicks": 3072,
          "midi": 52,
          "name": "E3",
          "ticks": 2432296,
          "time": 51.63656728229168,
          "velocity": 0.6299212598425197
        },
        {
          "duration": 0.0652171999999922,
          "durationTicks": 3072,
          "midi": 52,
          "name": "E3",
          "ticks": 2439976,
          "time": 51.79961028229168,
          "velocity": 0.6299212598425197
        },
        {
          "duration": 0.16304300000000183,
          "durationTicks": 7680,
          "midi": 53,
          "name": "F3",
          "ticks": 2447656,
          "time": 51.962653282291676,
          "velocity": 0.7874015748031497
        },
        {
          "duration": 0.1304343999999915,
          "durationTicks": 6144,
          "midi": 45,
          "name": "A2",
          "ticks": 2463016,
          "time": 52.28873928229168,
          "velocity": 0.6299212598425197
        },
        {
          "duration": 0.1304343999999915,
          "durationTicks": 6144,
          "midi": 52,
          "name": "E3",
          "ticks": 2478376,
          "time": 52.614825282291676,
          "velocity": 0.6299212598425197
        },
        {
          "duration": 0.0652171999999922,
          "durationTicks": 3072,
          "midi": 52,
          "name": "E3",
          "ticks": 2493736,
          "time": 52.94091128229168,
          "velocity": 0.6299212598425197
        },
        {
          "duration": 0.06521719999999931,
          "durationTicks": 3072,
          "midi": 52,
          "name": "E3",
          "ticks": 2501416,
          "time": 53.103954282291674,
          "velocity": 0.6299212598425197
        },
        {
          "duration": 0.16304300000000183,
          "durationTicks": 7680,
          "midi": 50,
          "name": "D3",
          "ticks": 2509096,
          "time": 53.266997282291676,
          "velocity": 0.7874015748031497
        },
        {
          "duration": 0.1304343999999915,
          "durationTicks": 6144,
          "midi": 45,
          "name": "A2",
          "ticks": 2524456,
          "time": 53.59308328229168,
          "velocity": 0.6299212598425197
        },
        {
          "duration": 0.1304343999999915,
          "durationTicks": 6144,
          "midi": 52,
          "name": "E3",
          "ticks": 2539816,
          "time": 53.919169282291676,
          "velocity": 0.6299212598425197
        },
        {
          "duration": 0.0652171999999922,
          "durationTicks": 3072,
          "midi": 52,
          "name": "E3",
          "ticks": 2555176,
          "time": 54.24525528229168,
          "velocity": 0.6299212598425197
        },
        {
          "duration": 0.06521719999999931,
          "durationTicks": 3072,
          "midi": 52,
          "name": "E3",
          "ticks": 2562856,
          "time": 54.408298282291675,
          "velocity": 0.6299212598425197
        },
        {
          "duration": 0.16304300000000183,
          "durationTicks": 7680,
          "midi": 53,
          "name": "F3",
          "ticks": 2570536,
          "time": 54.57134128229168,
          "velocity": 0.7874015748031497
        },
        {
          "duration": 0.1304343999999915,
          "durationTicks": 6144,
          "midi": 45,
          "name": "A2",
          "ticks": 2585896,
          "time": 54.89742728229168,
          "velocity": 0.6299212598425197
        },
        {
          "duration": 0.1304343999999915,
          "durationTicks": 6144,
          "midi": 52,
          "name": "E3",
          "ticks": 2601256,
          "time": 55.22351328229168,
          "velocity": 0.6299212598425197
        },
        {
          "duration": 0.0652171999999922,
          "durationTicks": 3072,
          "midi": 52,
          "name": "E3",
          "ticks": 2616616,
          "time": 55.54959928229168,
          "velocity": 0.6299212598425197
        },
        {
          "duration": 0.06521719999999931,
          "durationTicks": 3072,
          "midi": 52,
          "name": "E3",
          "ticks": 2624296,
          "time": 55.712642282291675,
          "velocity": 0.6299212598425197
        },
        {
          "duration": 0.16304300000000183,
          "durationTicks": 7680,
          "midi": 50,
          "name": "D3",
          "ticks": 2631976,
          "time": 55.87568528229168,
          "velocity": 0.7874015748031497
        },
        {
          "duration": 0.1304343999999915,
          "durationTicks": 6144,
          "midi": 45,
          "name": "A2",
          "ticks": 2647336,
          "time": 56.20177128229168,
          "velocity": 0.6299212598425197
        },
        {
          "duration": 0.1304343999999915,
          "durationTicks": 6144,
          "midi": 52,
          "name": "E3",
          "ticks": 2662696,
          "time": 56.52785728229168,
          "velocity": 0.6299212598425197
        },
        {
          "duration": 0.0652171999999922,
          "durationTicks": 3072,
          "midi": 52,
          "name": "E3",
          "ticks": 2678056,
          "time": 56.85394328229168,
          "velocity": 0.6299212598425197
        },
        {
          "duration": 0.06521719999999931,
          "durationTicks": 3072,
          "midi": 52,
          "name": "E3",
          "ticks": 2685736,
          "time": 57.016986282291676,
          "velocity": 0.6299212598425197
        },
        {
          "duration": 0.16304300000000183,
          "durationTicks": 7680,
          "midi": 53,
          "name": "F3",
          "ticks": 2693416,
          "time": 57.18002928229168,
          "velocity": 0.7874015748031497
        }
];

export default cueSet2;
