const cueSet1 = [
  {
          "duration": 0.13043440000000003,
          "durationTicks": 6144,
          "midi": 45,
          "name": "A2",
          "ticks": 0,
          "time": 0,
          "velocity": 0.6299212598425197
        },
        {
          "duration": 0.1304344,
          "durationTicks": 6144,
          "midi": 57,
          "name": "A3",
          "ticks": 15360,
          "time": 0.32608600000000004,
          "velocity": 0.6299212598425197
        },
        {
          "duration": 0.13043439999999995,
          "durationTicks": 6144,
          "midi": 59,
          "name": "B3",
          "ticks": 30720,
          "time": 0.6521720000000001,
          "velocity": 0.6299212598425197
        },
        {
          "duration": 0.13043440000000017,
          "durationTicks": 6144,
          "midi": 45,
          "name": "A2",
          "ticks": 61440,
          "time": 1.3043440000000002,
          "velocity": 0.6299212598425197
        },
        {
          "duration": 0.13043440000000017,
          "durationTicks": 6144,
          "midi": 60,
          "name": "C4",
          "ticks": 76800,
          "time": 1.6304300000000003,
          "velocity": 0.6299212598425197
        },
        {
          "duration": 0.1304344000000004,
          "durationTicks": 6144,
          "midi": 62,
          "name": "D4",
          "ticks": 92160,
          "time": 1.9565160000000001,
          "velocity": 0.6299212598425197
        },
        {
          "duration": 0.13043439999999995,
          "durationTicks": 6144,
          "midi": 45,
          "name": "A2",
          "ticks": 122880,
          "time": 2.6086880000000003,
          "velocity": 0.6299212598425197
        },
        {
          "duration": 0.13043439999999995,
          "durationTicks": 6144,
          "midi": 60,
          "name": "C4",
          "ticks": 138240,
          "time": 2.9347740000000004,
          "velocity": 0.6299212598425197
        },
        {
          "duration": 0.13043439999999995,
          "durationTicks": 6144,
          "midi": 59,
          "name": "B3",
          "ticks": 153600,
          "time": 3.2608600000000005,
          "velocity": 0.6299212598425197
        },
        {
          "duration": 0.1304344000000004,
          "durationTicks": 6144,
          "midi": 45,
          "name": "A2",
          "ticks": 184320,
          "time": 3.9130320000000003,
          "velocity": 0.6299212598425197
        },
        {
          "duration": 0.1304344000000004,
          "durationTicks": 6144,
          "midi": 57,
          "name": "A3",
          "ticks": 199680,
          "time": 4.239118,
          "velocity": 0.6299212598425197
        },
        {
          "duration": 0.1304344000000004,
          "durationTicks": 6144,
          "midi": 56,
          "name": "G#3",
          "ticks": 215040,
          "time": 4.5652040000000005,
          "velocity": 0.6299212598425197
        },
        {
          "duration": 0.1304343999999995,
          "durationTicks": 6144,
          "midi": 45,
          "name": "A2",
          "ticks": 245760,
          "time": 5.217376000000001,
          "velocity": 0.6299212598425197
        },
        {
          "duration": 0.1304343999999995,
          "durationTicks": 6144,
          "midi": 57,
          "name": "A3",
          "ticks": 261120,
          "time": 5.543462000000001,
          "velocity": 0.6299212598425197
        },
        {
          "duration": 0.1304343999999995,
          "durationTicks": 6144,
          "midi": 59,
          "name": "B3",
          "ticks": 276480,
          "time": 5.869548000000001,
          "velocity": 0.6299212598425197
        },
        {
          "duration": 0.1304343999999995,
          "durationTicks": 6144,
          "midi": 45,
          "name": "A2",
          "ticks": 307200,
          "time": 6.521720000000001,
          "velocity": 0.6299212598425197
        },
        {
          "duration": 0.1304343999999995,
          "durationTicks": 6144,
          "midi": 60,
          "name": "C4",
          "ticks": 322560,
          "time": 6.847806000000001,
          "velocity": 0.6299212598425197
        },
        {
          "duration": 0.1304343999999995,
          "durationTicks": 6144,
          "midi": 62,
          "name": "D4",
          "ticks": 337920,
          "time": 7.173892000000001,
          "velocity": 0.6299212598425197
        },
        {
          "duration": 0.1304344000000004,
          "durationTicks": 6144,
          "midi": 45,
          "name": "A2",
          "ticks": 368640,
          "time": 7.826064000000001,
          "velocity": 0.6299212598425197
        },
        {
          "duration": 0.1304344000000004,
          "durationTicks": 6144,
          "midi": 60,
          "name": "C4",
          "ticks": 384000,
          "time": 8.15215,
          "velocity": 0.6299212598425197
        },
        {
          "duration": 0.1304344000000004,
          "durationTicks": 6144,
          "midi": 59,
          "name": "B3",
          "ticks": 399360,
          "time": 8.478236,
          "velocity": 0.6299212598425197
        },
        {
          "duration": 0.1304344000000004,
          "durationTicks": 6144,
          "midi": 45,
          "name": "A2",
          "ticks": 430080,
          "time": 9.130408000000001,
          "velocity": 0.6299212598425197
        },
        {
          "duration": 0.1304344000000004,
          "durationTicks": 6144,
          "midi": 57,
          "name": "A3",
          "ticks": 445440,
          "time": 9.456494000000001,
          "velocity": 0.6299212598425197
        },
        {
          "duration": 0.1304344000000004,
          "durationTicks": 6144,
          "midi": 56,
          "name": "G#3",
          "ticks": 460800,
          "time": 9.782580000000001,
          "velocity": 0.6299212598425197
        },
        {
          "duration": 0.1304344000000004,
          "durationTicks": 6144,
          "midi": 45,
          "name": "A2",
          "ticks": 491520,
          "time": 10.434752000000001,
          "velocity": 0.6299212598425197
        },
        {
          "duration": 0.13043439999999862,
          "durationTicks": 6144,
          "midi": 57,
          "name": "A3",
          "ticks": 506880,
          "time": 10.760838000000001,
          "velocity": 0.6299212598425197
        },
        {
          "duration": 0.13043439999999862,
          "durationTicks": 6144,
          "midi": 59,
          "name": "B3",
          "ticks": 522240,
          "time": 11.086924000000002,
          "velocity": 0.6299212598425197
        },
        {
          "duration": 0.13043439999999862,
          "durationTicks": 6144,
          "midi": 45,
          "name": "A2",
          "ticks": 552960,
          "time": 11.739096000000002,
          "velocity": 0.6299212598425197
        },
        {
          "duration": 0.13043439999999862,
          "durationTicks": 6144,
          "midi": 60,
          "name": "C4",
          "ticks": 568320,
          "time": 12.065182000000002,
          "velocity": 0.6299212598425197
        },
        {
          "duration": 0.13043439999999862,
          "durationTicks": 6144,
          "midi": 62,
          "name": "D4",
          "ticks": 583680,
          "time": 12.391268000000002,
          "velocity": 0.6299212598425197
        },
        {
          "duration": 0.13043439999999862,
          "durationTicks": 6144,
          "midi": 45,
          "name": "A2",
          "ticks": 614400,
          "time": 13.043440000000002,
          "velocity": 0.6299212598425197
        },
        {
          "duration": 0.13043439999999862,
          "durationTicks": 6144,
          "midi": 60,
          "name": "C4",
          "ticks": 629760,
          "time": 13.369526000000002,
          "velocity": 0.6299212598425197
        },
        {
          "duration": 0.13043439999999862,
          "durationTicks": 6144,
          "midi": 59,
          "name": "B3",
          "ticks": 645120,
          "time": 13.695612000000002,
          "velocity": 0.6299212598425197
        },
        {
          "duration": 0.13043439999999862,
          "durationTicks": 6144,
          "midi": 45,
          "name": "A2",
          "ticks": 675840,
          "time": 14.347784000000003,
          "velocity": 0.6299212598425197
        },
        {
          "duration": 0.13043439999999862,
          "durationTicks": 6144,
          "midi": 57,
          "name": "A3",
          "ticks": 691200,
          "time": 14.673870000000003,
          "velocity": 0.6299212598425197
        },
        {
          "duration": 0.13043439999999862,
          "durationTicks": 6144,
          "midi": 56,
          "name": "G#3",
          "ticks": 706560,
          "time": 14.999956000000003,
          "velocity": 0.6299212598425197
        },
        {
          "duration": 0.1304344000000004,
          "durationTicks": 6144,
          "midi": 45,
          "name": "A2",
          "ticks": 737280,
          "time": 15.652128000000001,
          "velocity": 0.6299212598425197
        },
        {
          "duration": 0.13043439999999862,
          "durationTicks": 6144,
          "midi": 57,
          "name": "A3",
          "ticks": 752640,
          "time": 15.978214000000001,
          "velocity": 0.6299212598425197
        },
        {
          "duration": 0.13043439999999862,
          "durationTicks": 6144,
          "midi": 59,
          "name": "B3",
          "ticks": 768000,
          "time": 16.3043,
          "velocity": 0.6299212598425197
        },
        {
          "duration": 0.13043439999999862,
          "durationTicks": 6144,
          "midi": 45,
          "name": "A2",
          "ticks": 798720,
          "time": 16.956472,
          "velocity": 0.6299212598425197
        },
        {
          "duration": 0.13043439999999862,
          "durationTicks": 6144,
          "midi": 60,
          "name": "C4",
          "ticks": 814080,
          "time": 17.282558,
          "velocity": 0.6299212598425197
        },
        {
          "duration": 0.13043439999999862,
          "durationTicks": 6144,
          "midi": 62,
          "name": "D4",
          "ticks": 829440,
          "time": 17.608644,
          "velocity": 0.6299212598425197
        },
        {
          "duration": 0.13043439999999862,
          "durationTicks": 6144,
          "midi": 45,
          "name": "A2",
          "ticks": 860160,
          "time": 18.260816000000002,
          "velocity": 0.6299212598425197
        },
        {
          "duration": 0.13043439999999862,
          "durationTicks": 6144,
          "midi": 60,
          "name": "C4",
          "ticks": 875520,
          "time": 18.586902000000002,
          "velocity": 0.6299212598425197
        },
        {
          "duration": 0.13043439999999862,
          "durationTicks": 6144,
          "midi": 59,
          "name": "B3",
          "ticks": 890880,
          "time": 18.912988000000002,
          "velocity": 0.6299212598425197
        },
        {
          "duration": 0.13043439999999862,
          "durationTicks": 6144,
          "midi": 45,
          "name": "A2",
          "ticks": 921600,
          "time": 19.565160000000002,
          "velocity": 0.6299212598425197
        },
        {
          "duration": 0.13043439999999862,
          "durationTicks": 6144,
          "midi": 57,
          "name": "A3",
          "ticks": 936960,
          "time": 19.891246000000002,
          "velocity": 0.6299212598425197
        },
        {
          "duration": 0.13043439999999862,
          "durationTicks": 6144,
          "midi": 56,
          "name": "G#3",
          "ticks": 952320,
          "time": 20.217332000000003,
          "velocity": 0.6299212598425197
        },
        {
          "duration": 0.13043440000000217,
          "durationTicks": 6144,
          "midi": 45,
          "name": "A2",
          "ticks": 983040,
          "time": 20.869504000000003,
          "velocity": 0.6299212598425197
        },
        {
          "duration": 0.13043440000000217,
          "durationTicks": 6144,
          "midi": 57,
          "name": "A3",
          "ticks": 998400,
          "time": 21.195590000000003,
          "velocity": 0.6299212598425197
        },
        {
          "duration": 0.13043440000000217,
          "durationTicks": 6144,
          "midi": 59,
          "name": "B3",
          "ticks": 1013760,
          "time": 21.521676000000003,
          "velocity": 0.6299212598425197
        },
        {
          "duration": 0.13043440000000217,
          "durationTicks": 6144,
          "midi": 45,
          "name": "A2",
          "ticks": 1044480,
          "time": 22.173848000000003,
          "velocity": 0.6299212598425197
        },
        {
          "duration": 0.13043440000000217,
          "durationTicks": 6144,
          "midi": 60,
          "name": "C4",
          "ticks": 1059840,
          "time": 22.499934000000003,
          "velocity": 0.6299212598425197
        },
        {
          "duration": 0.13043440000000217,
          "durationTicks": 6144,
          "midi": 62,
          "name": "D4",
          "ticks": 1075200,
          "time": 22.826020000000003,
          "velocity": 0.6299212598425197
        },
        {
          "duration": 0.13043440000000217,
          "durationTicks": 6144,
          "midi": 45,
          "name": "A2",
          "ticks": 1105920,
          "time": 23.478192000000004,
          "velocity": 0.6299212598425197
        },
        {
          "duration": 0.13043440000000217,
          "durationTicks": 6144,
          "midi": 60,
          "name": "C4",
          "ticks": 1121280,
          "time": 23.804278000000004,
          "velocity": 0.6299212598425197
        },
        {
          "duration": 0.13043440000000217,
          "durationTicks": 6144,
          "midi": 59,
          "name": "B3",
          "ticks": 1136640,
          "time": 24.130364000000004,
          "velocity": 0.6299212598425197
        },
        {
          "duration": 0.13043440000000217,
          "durationTicks": 6144,
          "midi": 45,
          "name": "A2",
          "ticks": 1167360,
          "time": 24.782536000000004,
          "velocity": 0.6299212598425197
        },
        {
          "duration": 0.13043440000000217,
          "durationTicks": 6144,
          "midi": 57,
          "name": "A3",
          "ticks": 1182720,
          "time": 25.108622000000004,
          "velocity": 0.6299212598425197
        },
        {
          "duration": 0.13043440000000217,
          "durationTicks": 6144,
          "midi": 56,
          "name": "G#3",
          "ticks": 1198080,
          "time": 25.434708000000004,
          "velocity": 0.6299212598425197
        },
        {
          "duration": 0.13043440000000217,
          "durationTicks": 6144,
          "midi": 45,
          "name": "A2",
          "ticks": 1228800,
          "time": 26.086880000000004,
          "velocity": 0.6299212598425197
        },
        {
          "duration": 0.13043440000000217,
          "durationTicks": 6144,
          "midi": 57,
          "name": "A3",
          "ticks": 1244160,
          "time": 26.412966000000004,
          "velocity": 0.6299212598425197
        },
        {
          "duration": 0.13043440000000217,
          "durationTicks": 6144,
          "midi": 59,
          "name": "B3",
          "ticks": 1259520,
          "time": 26.739052000000004,
          "velocity": 0.6299212598425197
        },
        {
          "duration": 0.13043440000000217,
          "durationTicks": 6144,
          "midi": 45,
          "name": "A2",
          "ticks": 1290240,
          "time": 27.391224000000005,
          "velocity": 0.6299212598425197
        },
        {
          "duration": 0.13043440000000217,
          "durationTicks": 6144,
          "midi": 60,
          "name": "C4",
          "ticks": 1305600,
          "time": 27.717310000000005,
          "velocity": 0.6299212598425197
        },
        {
          "duration": 0.13043440000000217,
          "durationTicks": 6144,
          "midi": 62,
          "name": "D4",
          "ticks": 1320960,
          "time": 28.043396000000005,
          "velocity": 0.6299212598425197
        },
        {
          "duration": 0.13043440000000217,
          "durationTicks": 6144,
          "midi": 45,
          "name": "A2",
          "ticks": 1351680,
          "time": 28.695568000000005,
          "velocity": 0.6299212598425197
        },
        {
          "duration": 0.13043440000000217,
          "durationTicks": 6144,
          "midi": 60,
          "name": "C4",
          "ticks": 1367040,
          "time": 29.021654000000005,
          "velocity": 0.6299212598425197
        },
        {
          "duration": 0.13043440000000217,
          "durationTicks": 6144,
          "midi": 59,
          "name": "B3",
          "ticks": 1382400,
          "time": 29.347740000000005,
          "velocity": 0.6299212598425197
        },
        {
          "duration": 0.13043439999999862,
          "durationTicks": 6144,
          "midi": 45,
          "name": "A2",
          "ticks": 1413120,
          "time": 29.999912000000005,
          "velocity": 0.6299212598425197
        },
        {
          "duration": 0.13043439999999862,
          "durationTicks": 6144,
          "midi": 57,
          "name": "A3",
          "ticks": 1428480,
          "time": 30.325998000000006,
          "velocity": 0.6299212598425197
        },
        {
          "duration": 0.13043439999999862,
          "durationTicks": 6144,
          "midi": 56,
          "name": "G#3",
          "ticks": 1443840,
          "time": 30.652084000000006,
          "velocity": 0.6299212598425197
        },
        {
          "duration": 0.13043440000000217,
          "durationTicks": 6144,
          "midi": 45,
          "name": "A2",
          "ticks": 1474560,
          "time": 31.304256000000002,
          "velocity": 0.6299212598425197
        },
        {
          "duration": 0.13043440000000217,
          "durationTicks": 6144,
          "midi": 57,
          "name": "A3",
          "ticks": 1489920,
          "time": 31.630342000000002,
          "velocity": 0.6299212598425197
        },
        {
          "duration": 0.13043440000000572,
          "durationTicks": 6144,
          "midi": 59,
          "name": "B3",
          "ticks": 1505280,
          "time": 31.956428000000002,
          "velocity": 0.6299212598425197
        },
        {
          "duration": 0.13043440000000572,
          "durationTicks": 6144,
          "midi": 45,
          "name": "A2",
          "ticks": 1536000,
          "time": 32.6086,
          "velocity": 0.6299212598425197
        },
        {
          "duration": 0.13043439999999862,
          "durationTicks": 6144,
          "midi": 60,
          "name": "C4",
          "ticks": 1551360,
          "time": 32.934686000000006,
          "velocity": 0.6299212598425197
        },
        {
          "duration": 0.13043440000000572,
          "durationTicks": 6144,
          "midi": 62,
          "name": "D4",
          "ticks": 1566720,
          "time": 33.260772,
          "velocity": 0.6299212598425197
        },
        {
          "duration": 0.13043440000000572,
          "durationTicks": 6144,
          "midi": 45,
          "name": "A2",
          "ticks": 1597440,
          "time": 33.912944,
          "velocity": 0.6299212598425197
        },
        {
          "duration": 0.13043439999999862,
          "durationTicks": 6144,
          "midi": 60,
          "name": "C4",
          "ticks": 1612800,
          "time": 34.23903000000001,
          "velocity": 0.6299212598425197
        },
        {
          "duration": 0.13043440000000572,
          "durationTicks": 6144,
          "midi": 59,
          "name": "B3",
          "ticks": 1628160,
          "time": 34.565116,
          "velocity": 0.6299212598425197
        },
        {
          "duration": 0.13043440000000572,
          "durationTicks": 6144,
          "midi": 45,
          "name": "A2",
          "ticks": 1658880,
          "time": 35.217288,
          "velocity": 0.6299212598425197
        },
        {
          "duration": 0.13043439999999862,
          "durationTicks": 6144,
          "midi": 57,
          "name": "A3",
          "ticks": 1674240,
          "time": 35.54337400000001,
          "velocity": 0.6299212598425197
        },
        {
          "duration": 0.13043440000000572,
          "durationTicks": 6144,
          "midi": 56,
          "name": "G#3",
          "ticks": 1689600,
          "time": 35.869460000000004,
          "velocity": 0.6299212598425197
        },
        {
          "duration": 0.13043440000000572,
          "durationTicks": 6144,
          "midi": 45,
          "name": "A2",
          "ticks": 1720320,
          "time": 36.521632000000004,
          "velocity": 0.6299212598425197
        },
        {
          "duration": 0.13043439999999862,
          "durationTicks": 6144,
          "midi": 57,
          "name": "A3",
          "ticks": 1735680,
          "time": 36.84771800000001,
          "velocity": 0.6299212598425197
        },
        {
          "duration": 0.13043440000000572,
          "durationTicks": 6144,
          "midi": 59,
          "name": "B3",
          "ticks": 1751040,
          "time": 37.173804000000004,
          "velocity": 0.6299212598425197
        },
        {
          "duration": 0.13043440000000572,
          "durationTicks": 6144,
          "midi": 45,
          "name": "A2",
          "ticks": 1781760,
          "time": 37.825976000000004,
          "velocity": 0.6299212598425197
        },
        {
          "duration": 0.13043439999999862,
          "durationTicks": 6144,
          "midi": 60,
          "name": "C4",
          "ticks": 1797120,
          "time": 38.15206200000001,
          "velocity": 0.6299212598425197
        },
        {
          "duration": 0.13043440000000572,
          "durationTicks": 6144,
          "midi": 62,
          "name": "D4",
          "ticks": 1812480,
          "time": 38.478148000000004,
          "velocity": 0.6299212598425197
        },
        {
          "duration": 0.13043440000000572,
          "durationTicks": 6144,
          "midi": 45,
          "name": "A2",
          "ticks": 1843200,
          "time": 39.130320000000005,
          "velocity": 0.6299212598425197
        },
        {
          "duration": 0.13043439999999862,
          "durationTicks": 6144,
          "midi": 60,
          "name": "C4",
          "ticks": 1858560,
          "time": 39.45640600000001,
          "velocity": 0.6299212598425197
        },
        {
          "duration": 0.13043440000000572,
          "durationTicks": 6144,
          "midi": 59,
          "name": "B3",
          "ticks": 1873920,
          "time": 39.782492000000005,
          "velocity": 0.6299212598425197
        },
        {
          "duration": 0.13043439999999862,
          "durationTicks": 6144,
          "midi": 45,
          "name": "A2",
          "ticks": 1904640,
          "time": 40.434664000000005,
          "velocity": 0.6299212598425197
        },
        {
          "duration": 0.13043439999999862,
          "durationTicks": 6144,
          "midi": 57,
          "name": "A3",
          "ticks": 1920000,
          "time": 40.76075000000001,
          "velocity": 0.6299212598425197
        },
        {
          "duration": 0.13043439999999862,
          "durationTicks": 6144,
          "midi": 56,
          "name": "G#3",
          "ticks": 1935360,
          "time": 41.086836000000005,
          "velocity": 0.6299212598425197
        },
        {
          "duration": 0.13043439999999862,
          "durationTicks": 6144,
          "midi": 45,
          "name": "A2",
          "ticks": 1966080,
          "time": 41.739008000000005,
          "velocity": 0.6299212598425197
        },
        {
          "duration": 0.13043440000000572,
          "durationTicks": 6144,
          "midi": 57,
          "name": "A3",
          "ticks": 1981440,
          "time": 42.065094,
          "velocity": 0.6299212598425197
        },
        {
          "duration": 0.13043439999999862,
          "durationTicks": 6144,
          "midi": 59,
          "name": "B3",
          "ticks": 1996800,
          "time": 42.391180000000006,
          "velocity": 0.6299212598425197
        },
        {
          "duration": 0.13043439999999862,
          "durationTicks": 6144,
          "midi": 45,
          "name": "A2",
          "ticks": 2027520,
          "time": 43.043352000000006,
          "velocity": 0.6299212598425197
        },
        {
          "duration": 0.13043440000000572,
          "durationTicks": 6144,
          "midi": 60,
          "name": "C4",
          "ticks": 2042880,
          "time": 43.369438,
          "velocity": 0.6299212598425197
        },
        {
          "duration": 0.13043439999999862,
          "durationTicks": 6144,
          "midi": 62,
          "name": "D4",
          "ticks": 2058240,
          "time": 43.695524000000006,
          "velocity": 0.6299212598425197
        },
        {
          "duration": 0.13043439999999862,
          "durationTicks": 6144,
          "midi": 45,
          "name": "A2",
          "ticks": 2088960,
          "time": 44.347696000000006,
          "velocity": 0.6299212598425197
        },
        {
          "duration": 0.13043440000000572,
          "durationTicks": 6144,
          "midi": 60,
          "name": "C4",
          "ticks": 2104320,
          "time": 44.673782,
          "velocity": 0.6299212598425197
        },
        {
          "duration": 0.13043439999999862,
          "durationTicks": 6144,
          "midi": 59,
          "name": "B3",
          "ticks": 2119680,
          "time": 44.999868000000006,
          "velocity": 0.6299212598425197
        },
        {
          "duration": 0.13043439999999862,
          "durationTicks": 6144,
          "midi": 45,
          "name": "A2",
          "ticks": 2150400,
          "time": 45.65204000000001,
          "velocity": 0.6299212598425197
        },
        {
          "duration": 0.13043440000000572,
          "durationTicks": 6144,
          "midi": 57,
          "name": "A3",
          "ticks": 2165760,
          "time": 45.978126,
          "velocity": 0.6299212598425197
        },
        {
          "duration": 0.13043439999999862,
          "durationTicks": 6144,
          "midi": 56,
          "name": "G#3",
          "ticks": 2181120,
          "time": 46.30421200000001,
          "velocity": 0.6299212598425197
        },
        {
          "duration": 0.13043439999999862,
          "durationTicks": 6144,
          "midi": 45,
          "name": "A2",
          "ticks": 2211840,
          "time": 46.95638400000001,
          "velocity": 0.6299212598425197
        },
        {
          "duration": 0.13043440000000572,
          "durationTicks": 6144,
          "midi": 57,
          "name": "A3",
          "ticks": 2227200,
          "time": 47.28247,
          "velocity": 0.6299212598425197
        },
        {
          "duration": 0.13043439999999862,
          "durationTicks": 6144,
          "midi": 59,
          "name": "B3",
          "ticks": 2242560,
          "time": 47.60855600000001,
          "velocity": 0.6299212598425197
        },
        {
          "duration": 0.13043439999999862,
          "durationTicks": 6144,
          "midi": 45,
          "name": "A2",
          "ticks": 2273280,
          "time": 48.26072800000001,
          "velocity": 0.6299212598425197
        },
        {
          "duration": 0.13043440000000572,
          "durationTicks": 6144,
          "midi": 60,
          "name": "C4",
          "ticks": 2288640,
          "time": 48.586814000000004,
          "velocity": 0.6299212598425197
        },
        {
          "duration": 0.13043439999999862,
          "durationTicks": 6144,
          "midi": 62,
          "name": "D4",
          "ticks": 2304000,
          "time": 48.91290000000001,
          "velocity": 0.6299212598425197
        },
        {
          "duration": 0.13043439999999862,
          "durationTicks": 6144,
          "midi": 45,
          "name": "A2",
          "ticks": 2334720,
          "time": 49.56507200000001,
          "velocity": 0.6299212598425197
        },
        {
          "duration": 0.13043440000000572,
          "durationTicks": 6144,
          "midi": 60,
          "name": "C4",
          "ticks": 2350080,
          "time": 49.891158000000004,
          "velocity": 0.6299212598425197
        },
        {
          "duration": 0.13043439999999862,
          "durationTicks": 6144,
          "midi": 59,
          "name": "B3",
          "ticks": 2365440,
          "time": 50.21724400000001,
          "velocity": 0.6299212598425197
        },
        {
          "duration": 0.13043439999999862,
          "durationTicks": 6144,
          "midi": 45,
          "name": "A2",
          "ticks": 2396160,
          "time": 50.86941600000001,
          "velocity": 0.6299212598425197
        },
        {
          "duration": 0.13043440000000572,
          "durationTicks": 6144,
          "midi": 57,
          "name": "A3",
          "ticks": 2411520,
          "time": 51.195502000000005,
          "velocity": 0.6299212598425197
        },
        {
          "duration": 0.13043439999999862,
          "durationTicks": 6144,
          "midi": 56,
          "name": "G#3",
          "ticks": 2426880,
          "time": 51.52158800000001,
          "velocity": 0.6299212598425197
        },
        {
          "duration": 0.13043439999999862,
          "durationTicks": 6144,
          "midi": 45,
          "name": "A2",
          "ticks": 2457600,
          "time": 52.17376000000001,
          "velocity": 0.6299212598425197
        },
        {
          "duration": 0.13043440000000572,
          "durationTicks": 6144,
          "midi": 57,
          "name": "A3",
          "ticks": 2472960,
          "time": 52.499846000000005,
          "velocity": 0.6299212598425197
        },
        {
          "duration": 0.13043439999999862,
          "durationTicks": 6144,
          "midi": 59,
          "name": "B3",
          "ticks": 2488320,
          "time": 52.82593200000001,
          "velocity": 0.6299212598425197
        },
        {
          "duration": 0.13043439999999862,
          "durationTicks": 6144,
          "midi": 45,
          "name": "A2",
          "ticks": 2519040,
          "time": 53.47810400000001,
          "velocity": 0.6299212598425197
        },
        {
          "duration": 0.13043440000000572,
          "durationTicks": 6144,
          "midi": 60,
          "name": "C4",
          "ticks": 2534400,
          "time": 53.804190000000006,
          "velocity": 0.6299212598425197
        },
        {
          "duration": 0.13043439999999862,
          "durationTicks": 6144,
          "midi": 62,
          "name": "D4",
          "ticks": 2549760,
          "time": 54.13027600000001,
          "velocity": 0.6299212598425197
        },
        {
          "duration": 0.13043439999999862,
          "durationTicks": 6144,
          "midi": 45,
          "name": "A2",
          "ticks": 2580480,
          "time": 54.78244800000001,
          "velocity": 0.6299212598425197
        },
        {
          "duration": 0.13043440000000572,
          "durationTicks": 6144,
          "midi": 60,
          "name": "C4",
          "ticks": 2595840,
          "time": 55.108534000000006,
          "velocity": 0.6299212598425197
        },
        {
          "duration": 0.13043439999999862,
          "durationTicks": 6144,
          "midi": 59,
          "name": "B3",
          "ticks": 2611200,
          "time": 55.43462000000001,
          "velocity": 0.6299212598425197
        },
        {
          "duration": 0.13043439999999862,
          "durationTicks": 6144,
          "midi": 45,
          "name": "A2",
          "ticks": 2641920,
          "time": 56.08679200000001,
          "velocity": 0.6299212598425197
        },
        {
          "duration": 0.13043440000000572,
          "durationTicks": 6144,
          "midi": 57,
          "name": "A3",
          "ticks": 2657280,
          "time": 56.412878000000006,
          "velocity": 0.6299212598425197
        },
        {
          "duration": 0.13043439999999862,
          "durationTicks": 6144,
          "midi": 56,
          "name": "G#3",
          "ticks": 2672640,
          "time": 56.73896400000001,
          "velocity": 0.6299212598425197
        }
];

export default cueSet1;
